<mxfile host="app.diagrams.net" modified="2024-05-30T03:23:42.971Z" agent="Mozilla/5.0 (Windows NT 10.0; Win64; x64) AppleWebKit/537.36 (KHTML, like Gecko) Chrome/125.0.0.0 Safari/537.36 Edg/125.0.0.0" etag="Rfy37iO6iVp2n28WkBv7" version="24.4.10" type="github">
  <diagram name="PÃ¡gina-1" id="8UlJ8Wk1muLAhrgi_DeF">
    <mxGraphModel dx="664" dy="799" grid="0" gridSize="10" guides="1" tooltips="1" connect="1" arrows="1" fold="1" page="0" pageScale="1" pageWidth="827" pageHeight="1169" math="0" shadow="0">
      <root>
        <mxCell id="0" />
        <mxCell id="1" parent="0" />
        <mxCell id="fw76qZY3Hd1soUl0JmQ6-4" style="edgeStyle=none;curved=1;rounded=0;orthogonalLoop=1;jettySize=auto;html=1;exitX=0.5;exitY=1;exitDx=0;exitDy=0;fontSize=12;startSize=8;endSize=8;" edge="1" parent="1" source="fw76qZY3Hd1soUl0JmQ6-2" target="fw76qZY3Hd1soUl0JmQ6-3">
          <mxGeometry relative="1" as="geometry" />
        </mxCell>
        <mxCell id="fw76qZY3Hd1soUl0JmQ6-2" value="START" style="rounded=1;whiteSpace=wrap;html=1;" vertex="1" parent="1">
          <mxGeometry x="20" y="47" width="120" height="60" as="geometry" />
        </mxCell>
        <mxCell id="fw76qZY3Hd1soUl0JmQ6-6" value="" style="edgeStyle=none;curved=1;rounded=0;orthogonalLoop=1;jettySize=auto;html=1;fontSize=12;startSize=8;endSize=8;entryX=0.5;entryY=0;entryDx=0;entryDy=0;" edge="1" parent="1" source="fw76qZY3Hd1soUl0JmQ6-3" target="fw76qZY3Hd1soUl0JmQ6-7">
          <mxGeometry relative="1" as="geometry">
            <mxPoint x="82.2385026737968" y="251.98983957219252" as="targetPoint" />
          </mxGeometry>
        </mxCell>
        <mxCell id="fw76qZY3Hd1soUl0JmQ6-3" value="INPUT USERNAME" style="rounded=0;whiteSpace=wrap;html=1;" vertex="1" parent="1">
          <mxGeometry x="20" y="147" width="120" height="60" as="geometry" />
        </mxCell>
        <mxCell id="fw76qZY3Hd1soUl0JmQ6-11" value="" style="edgeStyle=none;curved=1;rounded=0;orthogonalLoop=1;jettySize=auto;html=1;fontSize=12;startSize=8;endSize=8;" edge="1" parent="1" source="fw76qZY3Hd1soUl0JmQ6-7" target="fw76qZY3Hd1soUl0JmQ6-10">
          <mxGeometry relative="1" as="geometry" />
        </mxCell>
        <mxCell id="fw76qZY3Hd1soUl0JmQ6-7" value="INPUT PASSWORD" style="whiteSpace=wrap;html=1;rounded=0;" vertex="1" parent="1">
          <mxGeometry x="20" y="269" width="120" height="60" as="geometry" />
        </mxCell>
        <mxCell id="fw76qZY3Hd1soUl0JmQ6-9" value="" style="shape=document;whiteSpace=wrap;html=1;boundedLbl=1;" vertex="1" parent="1">
          <mxGeometry x="320" y="252" width="120" height="80" as="geometry" />
        </mxCell>
        <mxCell id="fw76qZY3Hd1soUl0JmQ6-13" value="" style="edgeStyle=none;curved=1;rounded=0;orthogonalLoop=1;jettySize=auto;html=1;fontSize=12;startSize=8;endSize=8;" edge="1" parent="1" source="fw76qZY3Hd1soUl0JmQ6-10" target="fw76qZY3Hd1soUl0JmQ6-12">
          <mxGeometry relative="1" as="geometry" />
        </mxCell>
        <mxCell id="fw76qZY3Hd1soUl0JmQ6-14" value="YES" style="edgeLabel;html=1;align=center;verticalAlign=middle;resizable=0;points=[];fontSize=12;" vertex="1" connectable="0" parent="fw76qZY3Hd1soUl0JmQ6-13">
          <mxGeometry x="-0.1667" y="-3" relative="1" as="geometry">
            <mxPoint x="5" y="-14" as="offset" />
          </mxGeometry>
        </mxCell>
        <mxCell id="fw76qZY3Hd1soUl0JmQ6-10" value="Is Username Correct?" style="rhombus;whiteSpace=wrap;html=1;rounded=0;" vertex="1" parent="1">
          <mxGeometry x="40" y="439" width="80" height="80" as="geometry" />
        </mxCell>
        <mxCell id="fw76qZY3Hd1soUl0JmQ6-17" value="" style="edgeStyle=none;curved=1;rounded=0;orthogonalLoop=1;jettySize=auto;html=1;fontSize=12;startSize=8;endSize=8;" edge="1" parent="1" source="fw76qZY3Hd1soUl0JmQ6-12" target="fw76qZY3Hd1soUl0JmQ6-16">
          <mxGeometry relative="1" as="geometry" />
        </mxCell>
        <mxCell id="fw76qZY3Hd1soUl0JmQ6-12" value="Is password Correct?" style="rhombus;whiteSpace=wrap;html=1;rounded=0;" vertex="1" parent="1">
          <mxGeometry x="240" y="439" width="80" height="80" as="geometry" />
        </mxCell>
        <mxCell id="fw76qZY3Hd1soUl0JmQ6-16" value="What is the User Type?" style="rhombus;whiteSpace=wrap;html=1;rounded=0;" vertex="1" parent="1">
          <mxGeometry x="440" y="439" width="80" height="80" as="geometry" />
        </mxCell>
        <mxCell id="fw76qZY3Hd1soUl0JmQ6-18" value="YES" style="text;html=1;align=center;verticalAlign=middle;resizable=0;points=[];autosize=1;strokeColor=none;fillColor=none;fontSize=16;" vertex="1" parent="1">
          <mxGeometry x="352.5" y="454.5" width="50" height="31" as="geometry" />
        </mxCell>
      </root>
    </mxGraphModel>
  </diagram>
</mxfile>
